<?xml version="1.0" encoding="utf-8"?>
<!-- Generator: Adobe Illustrator 19.1.0, SVG Export Plug-In . SVG Version: 6.00 Build 0)  -->
<svg version="1.1" id="Layer_1" xmlns="http://www.w3.org/2000/svg" xmlns:xlink="http://www.w3.org/1999/xlink" width="39" height="53" x="0px" y="0px"
	 viewBox="0 0 85 127.9" style="enable-background:new 0 0 85 127.9;" xml:space="preserve">
<style type="text/css">
	.st0{fill:#9C97C7;}
	.st1{fill:#bad6ae;}
</style>
<g>
	<path class="st0" d="M72.9,11.8C65,3.9,55.4,0,44.1,0c0,0-18.1-0.4-32,11.8C4.4,19.5,0.4,28.6,0,39.3c0,0.2,0,0.5,0,0.7
		c0.6,30.8,14.7,60.1,42.5,87.9C70.3,100.1,84.5,70.8,85,40c0-0.2,0-0.5,0-0.7C84.7,28.6,80.6,19.5,72.9,11.8z"/>
	<path class="st1" d="M58.8,40.3c0,0.1,0,0.2,0,0.3c0,4.5-1.7,8.3-5,11.4c-2.6,2.7-5.7,4.3-9.3,4.7c-0.7,0.1-1.4,0.1-2,0.1
		c-4.5,0-8.3-1.6-11.4-4.8c-3.2-3.1-4.8-6.9-4.8-11.4c0-0.1,0-0.2,0-0.3c0-0.2,0-0.3,0-0.4c0.1-4.2,1.7-7.8,4.8-10.9
		c3.1-3.1,6.9-4.7,11.4-4.7c0.6,0,1.3,0,2,0.1c3.6,0.4,6.7,2,9.3,4.6c3.1,3.1,4.7,6.7,5,10.9C58.8,40,58.8,40.1,58.8,40.3z"/>
</g>
</svg>
